<svg xmlns="http://www.w3.org/2000/svg" x="0px" y="0px" width="64" height="64" viewBox="0 0 172 172" style=" fill:#000000;">
    <g fill="none" fill-rule="nonzero" stroke="none" stroke-width="none" stroke-linecap="butt" stroke-linejoin="miter" stroke-miterlimit="10" stroke-dasharray="" stroke-dashoffset="0" font-family="none" font-weight="none" font-size="none" text-anchor="none" style="mix-blend-mode: normal">
        <path d="M0,172v-172h172v172z" fill="none" stroke="none" stroke-width="1"></path>
        <g fill="#000000" stroke="none" stroke-width="1">
            <path d="M80.41504,3.02344c-2.40405,0.021 -4.66113,1.0918 -6.18335,2.94995l-8.31445,10.15161h-57.85474c-4.44067,0 -8.0625,3.62183 -8.0625,8.0625v16.125c0,4.44067 3.62183,8.0625 8.0625,8.0625h2.6875v75.25h-2.6875c-4.43017,0 -8.0625,3.63233 -8.0625,8.0625c0,4.43018 3.63233,8.0625 8.0625,8.0625h69.875v10.75c0,0.16797 0.06299,0.31494 0.09448,0.46191c-3.17041,1.0918 -5.46948,4.06274 -5.46948,7.60059c0,4.44067 3.62183,8.0625 8.0625,8.0625c4.44067,0 8.0625,-3.62183 8.0625,-8.0625c0,-3.53784 -2.29907,-6.50879 -5.46948,-7.60059c0.03149,-0.14697 0.09448,-0.29395 0.09448,-0.46191v-10.75h21.5c5.27002,12.60815 17.7417,21.5 32.25,21.5c19.27441,0 34.9375,-15.66309 34.9375,-34.9375c0,-14.5083 -8.89185,-26.97998 -21.5,-32.25v-45.6875h2.6875c4.44067,0 8.0625,-3.62183 8.0625,-8.0625v-16.125c0,-4.44067 -3.62183,-8.0625 -8.0625,-8.0625h-57.87573l-8.69238,-10.24609c-1.53272,-1.81616 -3.7688,-2.85547 -6.15186,-2.85547zM80.44653,8.39844c0.48291,0.09448 1.36474,0.11548 2.06811,0.94483l5.75293,6.78174h-15.41113l5.53247,-6.73974c0.69287,-0.85034 1.58521,-0.98682 2.05762,-0.98682zM8.0625,21.5h145.125c1.48022,0 2.6875,1.20728 2.6875,2.6875v16.125c0,1.48022 -1.20728,2.6875 -2.6875,2.6875h-145.125c-1.48022,0 -2.6875,-1.20728 -2.6875,-2.6875v-16.125c0,-1.48022 1.20728,-2.6875 2.6875,-2.6875zM13.4375,26.875c-1.48022,0 -2.6875,1.19678 -2.6875,2.6875v5.375c0,1.49072 1.20728,2.6875 2.6875,2.6875c1.48022,0 2.6875,-1.19678 2.6875,-2.6875v-5.375c0,-1.49072 -1.20728,-2.6875 -2.6875,-2.6875zM26.875,26.875c-1.48022,0 -2.6875,1.19678 -2.6875,2.6875v5.375c0,1.49072 1.20728,2.6875 2.6875,2.6875c1.48022,0 2.6875,-1.19678 2.6875,-2.6875v-5.375c0,-1.49072 -1.20728,-2.6875 -2.6875,-2.6875zM40.3125,26.875c-1.48022,0 -2.6875,1.19678 -2.6875,2.6875v5.375c0,1.49072 1.20728,2.6875 2.6875,2.6875c1.48022,0 2.6875,-1.19678 2.6875,-2.6875v-5.375c0,-1.49072 -1.20728,-2.6875 -2.6875,-2.6875zM53.75,26.875c-1.48022,0 -2.6875,1.19678 -2.6875,2.6875v5.375c0,1.49072 1.20728,2.6875 2.6875,2.6875c1.48022,0 2.6875,-1.19678 2.6875,-2.6875v-5.375c0,-1.49072 -1.20728,-2.6875 -2.6875,-2.6875zM67.1875,26.875c-1.48022,0 -2.6875,1.19678 -2.6875,2.6875v5.375c0,1.49072 1.20728,2.6875 2.6875,2.6875c1.48022,0 2.6875,-1.19678 2.6875,-2.6875v-5.375c0,-1.49072 -1.20728,-2.6875 -2.6875,-2.6875zM80.625,26.875c-1.48022,0 -2.6875,1.19678 -2.6875,2.6875v5.375c0,1.49072 1.20728,2.6875 2.6875,2.6875c1.48022,0 2.6875,-1.19678 2.6875,-2.6875v-5.375c0,-1.49072 -1.20728,-2.6875 -2.6875,-2.6875zM94.0625,26.875c-1.48022,0 -2.6875,1.19678 -2.6875,2.6875v5.375c0,1.49072 1.20728,2.6875 2.6875,2.6875c1.48022,0 2.6875,-1.19678 2.6875,-2.6875v-5.375c0,-1.49072 -1.20728,-2.6875 -2.6875,-2.6875zM107.5,26.875c-1.48022,0 -2.6875,1.19678 -2.6875,2.6875v5.375c0,1.49072 1.20728,2.6875 2.6875,2.6875c1.48022,0 2.6875,-1.19678 2.6875,-2.6875v-5.375c0,-1.49072 -1.20728,-2.6875 -2.6875,-2.6875zM120.9375,26.875c-1.48022,0 -2.6875,1.19678 -2.6875,2.6875v5.375c0,1.49072 1.20728,2.6875 2.6875,2.6875c1.48022,0 2.6875,-1.19678 2.6875,-2.6875v-5.375c0,-1.49072 -1.20728,-2.6875 -2.6875,-2.6875zM134.375,26.875c-1.48022,0 -2.6875,1.19678 -2.6875,2.6875v5.375c0,1.49072 1.20728,2.6875 2.6875,2.6875c1.48022,0 2.6875,-1.19678 2.6875,-2.6875v-5.375c0,-1.49072 -1.20728,-2.6875 -2.6875,-2.6875zM147.8125,26.875c-1.48022,0 -2.6875,1.19678 -2.6875,2.6875v5.375c0,1.49072 1.20728,2.6875 2.6875,2.6875c1.48022,0 2.6875,-1.19678 2.6875,-2.6875v-5.375c0,-1.49072 -1.20728,-2.6875 -2.6875,-2.6875zM16.125,48.375h129v43.93433c-2.58252,-0.60889 -5.29102,-0.93433 -8.0625,-0.93433c-7.25415,0 -13.9834,2.25708 -19.56836,6.05737c0.47241,-1.02881 0.75586,-2.1626 0.75586,-3.36987c0,-1.49072 -1.20728,-2.6875 -2.6875,-2.6875c-1.48022,0 -2.6875,1.19678 -2.6875,2.6875c0,1.48022 -1.20728,2.6875 -2.6875,2.6875h-5.375c-1.48022,0 -2.6875,-1.20728 -2.6875,-2.6875v-16.125c0,-1.48022 1.20728,-2.6875 2.6875,-2.6875h5.375c1.48022,0 2.6875,1.20728 2.6875,2.6875c0,1.49072 1.20728,2.6875 2.6875,2.6875c1.48022,0 2.6875,-1.19678 2.6875,-2.6875c0,-4.44067 -3.62183,-8.0625 -8.0625,-8.0625h-5.375c-4.44067,0 -8.0625,3.62183 -8.0625,8.0625v16.125c0,4.44067 3.62183,8.0625 8.0625,8.0625h5.375c0.70337,0 1.37524,-0.11548 2.02612,-0.29395c-5.61645,5.72143 -9.32227,13.32202 -9.95215,21.79395h-86.13647zM51.0625,69.875c-1.18628,0 -2.22559,0.77686 -2.57202,1.92114l-8.0625,26.875c-0.43042,1.41724 0.37793,2.90796 1.80566,3.33838c1.41724,0.41992 2.90796,-0.37793 3.33838,-1.80566l1.03931,-3.45386h4.45117c1.48022,0 2.6875,-1.19678 2.6875,-2.6875c0,-1.49072 -1.20728,-2.6875 -2.6875,-2.6875h-2.84497l2.84497,-9.45874l5.49048,18.2876c0.34643,1.17578 1.41724,1.92114 2.57202,1.92114c0.25195,0 0.5144,-0.04199 0.76636,-0.11548c1.42773,-0.43042 2.23609,-1.92114 1.80566,-3.33838l-8.0625,-26.875c-0.34643,-1.14429 -1.38574,-1.92114 -2.57202,-1.92114zM72.5625,69.875c-1.48022,0 -2.6875,1.19678 -2.6875,2.6875v26.875c0,1.49072 1.20728,2.6875 2.6875,2.6875h10.75c4.44067,0 8.0625,-3.62183 8.0625,-8.0625v-5.375c0,-2.53003 -1.19678,-4.76611 -3.02344,-6.24634c0.19946,-0.56689 0.33594,-1.17578 0.33594,-1.81616v-2.6875c0,-4.44067 -3.62183,-8.0625 -8.0625,-8.0625zM75.25,75.25h5.375c1.48022,0 2.6875,1.20728 2.6875,2.6875v2.6875h-8.0625zM75.25,86h8.0625c1.48022,0 2.6875,1.20728 2.6875,2.6875v5.375c0,1.48022 -1.20728,2.6875 -2.6875,2.6875h-8.0625zM137.0625,96.75c2.79248,0 5.51147,0.37793 8.0625,1.13379c1.87915,0.50391 3.68482,1.22827 5.375,2.08911c9.56372,4.89209 16.125,14.86523 16.125,26.3396c0,16.31397 -13.24853,29.5625 -29.5625,29.5625c-11.47436,0 -21.44751,-6.56128 -26.3396,-16.125c-0.86084,-1.69018 -1.58521,-3.49585 -2.08911,-5.375c-0.5144,-1.74267 -0.83984,-3.54834 -0.99732,-5.375c-0.08398,-0.88184 -0.13647,-1.77417 -0.13647,-2.6875c0,-0.91333 0.05249,-1.80566 0.13647,-2.6875c1.34375,-15.0542 14.02539,-26.875 29.42603,-26.875zM153.1875,112.875c-0.68237,0 -1.37524,0.26245 -1.90015,0.78735l-19.59985,19.59985l-8.84985,-8.84985c-1.0498,-1.0498 -2.75049,-1.0498 -3.80029,0c-1.0498,1.0498 -1.0498,2.75049 0,3.80029l10.75,10.75c0.5249,0.5249 1.20728,0.78735 1.90015,0.78735c0.69287,0 1.37524,-0.26245 1.90015,-0.78735l21.5,-21.5c1.0498,-1.0498 1.0498,-2.75049 0,-3.80029c-0.5249,-0.5249 -1.21777,-0.78735 -1.90015,-0.78735zM8.0625,129h94.19897c0.10498,1.82666 0.39893,3.63233 0.79785,5.375h-94.99683c-1.48022,0 -2.6875,-1.20728 -2.6875,-2.6875c0,-1.48022 1.20728,-2.6875 2.6875,-2.6875zM80.625,155.875c1.48022,0 2.6875,1.20728 2.6875,2.6875c0,1.48022 -1.20728,2.6875 -2.6875,2.6875c-1.48022,0 -2.6875,-1.20728 -2.6875,-2.6875c0,-1.48022 1.20728,-2.6875 2.6875,-2.6875z"></path>
        </g>
        <g fill="#cccccc" stroke="none" stroke-width="1">
            <path d="M99.195,68.94v3.7h-10.97v30.42h-4.48v-30.42h-10.94v-3.7z"></path>
        </g>
        <path d="M62.805,113.06v-54.12h46.39v54.12z" fill="#ff0000" stroke="#50e3c2" stroke-width="3" opacity="0"></path>
    </g>
</svg>